<svg id="Layer_1" data-name="Layer 1" xmlns="http://www.w3.org/2000/svg" viewBox="0 0 1920 1080"><defs><style>.cls-1{fill:#aace7c;}.cls-2{opacity:0.1;}.cls-3{fill:#c899f2;}.cls-4{fill:#973ee5;}.cls-5{fill:#ad39ff;stroke:#a959ef;stroke-miterlimit:10;stroke-width:12px;}.cls-6{fill:#fff;}.cls-7{fill:#e0b3a0;}.cls-8{opacity:0.3;}.cls-9{fill:#f4eee9;}.cls-10{fill:#00f9ff;}.cls-11{fill:#0e9b91;}.cls-12{fill:#2adbce;}.cls-13{fill:#13bcb3;}.cls-14{fill:#fff5fc;}.cls-15{opacity:0.5;}</style></defs><title>startskaerm</title><rect class="cls-1" width="1920" height="1080"/><path class="cls-2" d="M1521,438c47-20,138,64,53,110s-94-3-258,46-209.65-44-222,12c-13,59-141,7-268,63-129.93,57.29-41-49-105-69s-331,48-302-18S241,517,277,463,1521,438,1521,438Z"/><path class="cls-2" d="M222,732c-16.49,33,47,124,32,152s74,15,104-15,131-5,116-57S246,684,222,732Z"/><path class="cls-2" d="M1101,1049c-19.46,13.52-37,23.64-52.94,31H911.77c-31.64-13.61-63-30.6-106.77-31-67.12-.61,4.41-162.89,55-126,48,35,199,28,230,23S1134.15,1026,1101,1049Z"/><polygon class="cls-3" points="839.86 244.97 839.43 274.76 839.11 296.87 802.51 321.44 783.61 309.76 769.71 301.17 769.71 300.86 770.06 279.13 770.46 254.19 785.04 261.94 804.53 272.3 839.86 244.97"/><polygon class="cls-4" points="785.05 261.62 785.04 261.94 784.3 286.74 783.61 309.76 783.61 309.83 769.71 301.17 769.71 301.17 769.71 300.86 770.06 279.13 770.46 253.8 785.05 261.62"/><polygon class="cls-2" points="839.86 244.97 839.43 274.76 805.33 297.97 784.3 286.74 770.06 279.13 770.06 279.13 770.46 253.8 785.05 261.62 785.04 261.94 804.53 272.3 839.86 244.97"/><path class="cls-3" d="M1109.24,276.25c-21.69,12.53-84.26,32.75-94.68,27.24-3.64-1.93-9.2-8.86-14.89-17-10.53-15.16-21.49-34.63-21.49-34.63L1092,225.05c.93-.28,1.23,13.33,4.59,18.92a36.41,36.41,0,0,1,4.23,9.41,22.09,22.09,0,0,1,.78,5.42C1101.67,264.06,1111.19,275.12,1109.24,276.25Z"/><path class="cls-2" d="M1101.56,254.14l-101.13,33.07c-10.53-15.15-21.5-34.63-21.5-34.63l113.81-26.77c.92-.28,1.22,13.33,4.59,18.92A36.25,36.25,0,0,1,1101.56,254.14Z"/><path class="cls-3" d="M904.13,191.18c3.32-20.27-.73-25.43.22-31,4.61-27-17.42-22,24.39-26.22,28.18-1.84,64.24-.42,70.18,5.75,8,8.35,18.57,60.22,18.56,60.22Z"/><path class="cls-4" d="M1017.3,191.52c-12.84-93.33-66.83-66.06-66.83-66.06l-.6,71.53S1021,218.34,1017.3,191.52Z"/><path class="cls-4" d="M963.5,275.32c44.11,77.33,85,33.72,85,33.72L1024.43,246S950.83,253.09,963.5,275.32Z"/><polygon class="cls-3" points="769.27 244.73 769.77 184.96 817.4 170.52 946.93 186.44 946.43 246.22 816.95 222.63 769.27 244.73"/><polygon class="cls-4" points="769.76 184.68 769.25 245.4 785.65 237.84 786.11 179.61 769.76 184.68"/><circle class="cls-5" cx="949.38" cy="255.1" r="88.83"/><path class="cls-3" d="M1100.13,237.3c-56.94,49.1-128.92-28.77-77.11-81.64C1080,106.56,1152,184.43,1100.13,237.3Z"/><rect x="723.51" y="202.7" width="80.27" height="11.36" transform="translate(548.87 970.25) rotate(-89.52)"/><polygon points="770.42 253.85 770.2 279.95 769.88 318.2 758.52 318.11 758.89 273.91 759 261.13 759.06 253.75 765.54 253.81 770.42 253.85"/><path class="cls-6" d="M1048.44,187.54s25,26.08,24.57,25.65C1045.88,243.45,1020.41,213.66,1048.44,187.54Z"/><path d="M1061,187.63c5.69-6-2.9-14.38-8.84-9.36Z"/><path d="M1083.11,217.63c6-6.27-3-15.13-9.28-9.83Z"/><polygon class="cls-4" points="838.35 296.93 840.91 173.05 901.7 175.57 875.45 310.33 838.35 296.93"/><polygon class="cls-2" points="768.65 253.34 768.43 279.44 757.13 273.4 757.23 260.62 763.77 253.3 768.65 253.34"/><rect class="cls-7" x="412.44" y="308.6" width="1078.4" height="231" rx="12"/><rect class="cls-8" x="430.72" y="326.13" width="86" height="86" rx="9.18"/><rect class="cls-8" x="536.03" y="326.13" width="86" height="86" rx="12"/><rect class="cls-8" x="638.58" y="326.13" width="86" height="86" rx="12"/><rect class="cls-8" x="740.34" y="326.13" width="86" height="86" rx="12"/><rect class="cls-8" x="866.54" y="326.6" width="86" height="86" rx="12"/><rect class="cls-8" x="967.66" y="326.6" width="86" height="86" rx="12"/><rect class="cls-8" x="1072.45" y="326.6" width="86" height="86" rx="12"/><rect class="cls-8" x="1177.73" y="326.6" width="86" height="86" rx="12"/><rect class="cls-8" x="1286.1" y="326.6" width="86" height="86" rx="12"/><rect class="cls-8" x="1391.56" y="326.6" width="86" height="86" rx="12"/><rect class="cls-9" x="426.72" y="322.13" width="86" height="86" rx="9.18"/><rect class="cls-9" x="532.03" y="322.13" width="86" height="86" rx="12"/><rect class="cls-9" x="634.58" y="322.13" width="86" height="86" rx="12"/><rect class="cls-9" x="736.34" y="322.13" width="86" height="86" rx="12"/><rect class="cls-9" x="862.54" y="322.6" width="86" height="86" rx="12"/><rect class="cls-9" x="963.66" y="322.6" width="86" height="86" rx="12"/><rect class="cls-9" x="1068.45" y="322.6" width="86" height="86" rx="12"/><rect class="cls-9" x="1173.73" y="322.6" width="86" height="86" rx="12"/><rect class="cls-9" x="1282.1" y="322.6" width="86" height="86" rx="12"/><path d="M466.61,343.67H452.25v-5.18h34.94v5.18H472.77v42h-6.16Z"/><path d="M566.56,370.83l-4.9,14.84h-6.3l16-47.18h7.35l16.11,47.18h-6.52l-5-14.84ZM582,366.07l-4.62-13.58c-1-3.08-1.75-5.88-2.45-8.61h-.14c-.7,2.8-1.47,5.67-2.38,8.54l-4.62,13.65Z"/><path d="M663.58,338.49h6.09v22.75h.21c1.26-1.82,2.52-3.5,3.71-5L688,338.49h7.56l-17.08,20,18.41,27.16h-7.21L674.15,362.5l-4.48,5.18v18h-6.09Z"/><path d="M791.93,363.55H773.51v17H794v5.11H767.39V338.49H793v5.11H773.51v14.91h18.42Z"/><path d="M897.07,371.3l-4.9,14.85h-6.3l16-47.19h7.35l16.1,47.19h-6.51l-5-14.85Zm15.47-4.76L907.92,353c-1-3.08-1.75-5.88-2.45-8.61h-.14c-.7,2.8-1.47,5.67-2.38,8.54l-4.62,13.65Z"/><path d="M1024.65,384.61c-2.24,1.12-6.72,2.24-12.46,2.24-13.3,0-23.31-8.4-23.31-23.88,0-14.77,10-24.78,24.64-24.78,5.88,0,9.59,1.26,11.2,2.1l-1.47,5a22.18,22.18,0,0,0-9.52-2c-11.06,0-18.41,7.07-18.41,19.46,0,11.56,6.65,19,18.13,19a24.38,24.38,0,0,0,9.94-2Z"/><path d="M1108.33,344.14H1094V339h34.94v5.18h-14.43v42h-6.16Z"/><path d="M1219.77,339v47.19h-6.09V339Z"/><path d="M1346.63,362.06c0,16.25-9.87,24.86-21.91,24.86-12.46,0-21.21-9.66-21.21-23.95,0-15,9.31-24.78,21.91-24.78C1338.3,338.19,1346.63,348.06,1346.63,362.06Zm-36.61.77c0,10.09,5.46,19.12,15,19.12s15.12-8.89,15.12-19.61c0-9.38-4.9-19.18-15-19.18S1310,352.47,1310,362.83Z"/><rect class="cls-9" x="1387.56" y="322.6" width="86" height="86" rx="12"/><path d="M1412.85,386.15V339h6.65l15.12,23.87a134.47,134.47,0,0,1,8.47,15.34l.14-.07c-.56-6.31-.7-12.05-.7-19.4V339h5.74v47.19h-6.16l-15-23.94a150.88,150.88,0,0,1-8.82-15.76l-.21.07c.35,6,.49,11.62.49,19.46v20.17Z"/><rect class="cls-8" x="921.44" y="437.83" width="88.77" height="88.77" rx="9.18"/><rect class="cls-9" x="917.44" y="433.83" width="88.77" height="88.77" rx="9.18"/><path d="M934.46,480.37v-26.8A4.16,4.16,0,0,1,940.7,450l23.21,13.4,23.21,13.4a4.16,4.16,0,0,1,0,7.21l-23.21,13.4-23.21,13.4a4.16,4.16,0,0,1-6.24-3.6Z"/><path class="cls-10" d="M262.43,630.44c1.63,1.63,7-4.87,8.64-3.29,3.49,3.29,9.25,3.29,11.1-.2,1.23-2.32,7.94,5.26,9.87,3.49,4.94-4.52,0-123.38,0-123.38H262.43S256.26,624.27,262.43,630.44Z"/><path class="cls-10" d="M510.23,495.63c-.44-2.27-8.49.17-9-2.08-1.07-4.68-5.85-7.89-9.34-6-2.3,1.24-3.66-8.8-6.25-8.4-5.76.87-53.51,77.78-65.82,97.77a5.73,5.73,0,0,0,1.68,7.77l11.6,7.77a10.64,10.64,0,0,0,14.49-2.51C464.63,566.92,511.62,502.64,510.23,495.63Z"/><path class="cls-10" d="M451.91,571.66l-32.55,10.09c-9.67-31.07-18.15-64.56-18.15-64.56l28.28-8.77S441.08,541,451.91,571.66Z"/><path class="cls-11" d="M317,486.23c-63-5.15-63,27.41-63,27.41h78.14S324.69,486.86,317,486.23Z"/><path class="cls-11" d="M385.65,488.9c62.47-5.14,62.47,27.41,62.47,27.41H370.59S378,489.53,385.65,488.9Z"/><rect x="277.03" y="791.25" width="141.89" height="9.25"/><rect class="cls-10" x="305.2" y="547.78" width="91.51" height="243.47"/><rect class="cls-12" x="305.2" y="561.97" width="91.51" height="51"/><rect class="cls-13" x="305.2" y="770.27" width="91.51" height="20.97"/><path class="cls-2" d="M350.85,791.25H305V582.32s11.74,16.43,17.89,18.49c17.06,5.74,28,6.17,28,6.17Z"/><path class="cls-13" d="M425.07,557.12s-33.27.14-74.15.12S277,557,277,557s11.52-81.63,73.82-81.64C415.74,475.39,425.07,557.12,425.07,557.12Z"/><circle class="cls-10" cx="351.16" cy="433.75" r="45.75"/><path class="cls-6" d="M329.21,436.72c10.33-2.25,37.07-3.07,43.29,0,7.81,3.86-3.35,26.34-21.85,26.34C333.43,463.06,320.63,438.59,329.21,436.72Z"/><path d="M337.9,428.51a5,5,0,0,0-5.38-4.89c-4.76,0-5.11,4.89-5.11,4.89Z"/><path d="M374.91,428.51a5.21,5.21,0,0,0-5.65-5.14c-5,0-5.36,5.14-5.36,5.14Z"/><rect class="cls-14" x="299.44" y="566.28" width="103.02" height="112.28"/><polygon class="cls-14" points="299.44 566.28 305.2 561.97 305 566.28 299.44 566.28"/><polygon class="cls-2" points="299.44 566.28 305.2 561.97 305 566.28 299.44 566.28"/><polygon class="cls-14" points="313.63 682.05 402.47 678.56 313.63 678.56 313.63 682.05"/><polygon class="cls-2" points="313.63 678.56 311.99 678.56 313.63 574.72 314.87 574.72 313.63 678.56"/><polygon class="cls-6" points="402.47 566.28 396.71 561.97 396.71 566.28 402.47 566.28"/><polygon class="cls-2" points="402.47 566.28 396.71 561.97 396.71 566.28 402.47 566.28"/><polygon class="cls-15" points="324.94 681.64 319.8 681.85 319.8 566.28 324.94 566.28 324.94 681.64"/><rect class="cls-15" x="329.26" y="566.28" width="4.94" height="115.15"/></svg>
