<svg xmlns="http://www.w3.org/2000/svg" viewBox="0 0 1921 1079"><defs><style>.cls-1{fill:#464141;}.cls-2,.cls-3{fill:#ccc894;}.cls-2{opacity:0.3;}.cls-4,.cls-5{fill:#fff;}.cls-4{stroke:#fff;stroke-miterlimit:10;}</style></defs><title>Artboard 13</title><g id="Layer_2" data-name="Layer 2"><path class="cls-1" d="M1897.66,546.82l-3.84,12.23-9.2,29.36-11.14,35.51-9.59,30.59c-1.56,5-3.32,9.9-4.68,14.92l-.06.21c-1.16,3.69,4.63,5.27,5.78,1.59l3.84-12.23,9.2-29.36,11.14-35.51,9.59-30.59c1.55-5,3.32-9.9,4.68-14.92l.06-.2c1.16-3.7-4.63-5.28-5.78-1.6Z"/><path class="cls-1" d="M1856.79,425.93l4,12.16,9.68,29.21,11.7,35.33,10.09,30.43c1.64,4.94,3.18,9.93,4.91,14.84,0,.07,0,.14.07.2a3.07,3.07,0,0,0,3.69,2.1,3,3,0,0,0,2.1-3.69l-4-12.17-9.68-29.21-11.71-35.32-10.08-30.43c-1.64-4.94-3.19-9.93-4.92-14.84a1.72,1.72,0,0,0-.07-.21,3.06,3.06,0,0,0-3.69-2.09,3,3,0,0,0-2.09,3.69Z"/><path class="cls-1" d="M23.57,548.69l3.94-12.19L37,507.21l11.42-35.42,9.84-30.51c1.59-4.94,3.41-9.87,4.8-14.88l.06-.21a3,3,0,1,0-5.78-1.59l-3.93,12.2-9.45,29.28L32.49,501.5,22.65,532c-1.59,5-3.41,9.87-4.79,14.88l-.07.21a3,3,0,1,0,5.78,1.59Z"/><path class="cls-1" d="M63.45,669.91l-3.93-12.19-9.44-29.29L38.66,593,28.82,562.5c-1.6-5-3.1-10-4.8-14.88a1.72,1.72,0,0,0-.07-.21,3,3,0,0,0-5.78,1.6l3.93,12.2,9.45,29.28L43,625.91l9.83,30.51c1.6,5,3.1,10,4.8,14.88a1.72,1.72,0,0,1,.07.21,3.06,3.06,0,0,0,3.69,2.09,3,3,0,0,0,2.09-3.69Z"/><rect class="cls-2" y="-4" width="1921" height="1079"/><rect class="cls-3" x="1315" width="606" height="1079"/><circle class="cls-3" cx="1331.5" cy="520.5" r="382.5"/><circle class="cls-4" cx="1018.39" cy="396.95" r="7.37"/><circle class="cls-4" cx="1051.55" cy="612.48" r="7.37"/><circle class="cls-4" cx="1027.29" cy="613.17" r="7.37"/><circle class="cls-4" cx="995.97" cy="613.17" r="7.37"/><path class="cls-5" d="M996.89,614.67h28.56a1.5,1.5,0,0,0,0-3H996.89a1.5,1.5,0,0,0,0,3Z"/><circle class="cls-4" cx="1019.92" cy="421.59" r="7.37"/><circle class="cls-4" cx="1046.02" cy="349.06" r="7.37"/><circle class="cls-4" cx="1046.02" cy="373.01" r="7.37"/><circle class="cls-4" cx="1046.02" cy="420.9" r="7.37"/><circle class="cls-4" cx="1049.71" cy="516.69" r="7.37"/><circle class="cls-4" cx="1009.18" cy="564.58" r="7.37"/><circle class="cls-4" cx="1009.18" cy="588.53" r="7.37"/><circle class="cls-4" cx="1049.71" cy="540.64" r="7.37"/><circle class="cls-4" cx="1051.55" cy="636.43" r="7.37"/><circle class="cls-4" cx="988.6" cy="421.59" r="7.37"/><path class="cls-5" d="M989.53,423.09h28.55a1.5,1.5,0,0,0,0-3H989.53a1.5,1.5,0,0,0,0,3Z"/><line class="cls-5" x1="1012.15" y1="515.76" x2="1033.42" y2="494.5"/><path class="cls-5" d="M1013.21,516.83l18.62-18.62,2.65-2.65a1.5,1.5,0,0,0-2.12-2.12l-18.62,18.61-2.65,2.65a1.5,1.5,0,0,0,2.12,2.13Z"/><line class="cls-5" x1="1012.15" y1="491.82" x2="1033.42" y2="470.55"/><path class="cls-5" d="M1013.21,492.88l18.62-18.62,2.65-2.65a1.5,1.5,0,0,0-2.12-2.12l-18.62,18.62-2.65,2.65a1.5,1.5,0,0,0,2.12,2.12Z"/><line class="cls-5" x1="1012.15" y1="467.87" x2="1033.42" y2="446.6"/><path class="cls-5" d="M1013.21,468.93l18.62-18.62,2.65-2.65a1.5,1.5,0,0,0-2.12-2.12l-18.62,18.62-2.65,2.65a1.5,1.5,0,0,0,2.12,2.12Z"/><circle class="cls-4" cx="988.97" cy="492.58" r="7.37"/><circle class="cls-4" cx="988.97" cy="468.63" r="7.37"/><circle class="cls-4" cx="988.97" cy="516.53" r="7.37"/><line class="cls-5" x1="1083.83" y1="492.58" x2="1034.97" y2="492.74"/><path class="cls-5" d="M1083.83,491.08l-16.46.05-26.37.09-6,0a1.5,1.5,0,0,0,0,3l16.46-.05,26.38-.09,6,0a1.5,1.5,0,0,0,0-3Z"/><line class="cls-5" x1="1011.99" y1="468.63" x2="996.33" y2="468.63"/><path class="cls-5" d="M1012,467.13H996.33a1.5,1.5,0,0,0,0,3H1012a1.5,1.5,0,0,0,0-3Z"/><line class="cls-5" x1="1011.99" y1="492.58" x2="996.33" y2="492.58"/><path class="cls-5" d="M1012,491.08H996.33a1.5,1.5,0,0,0,0,3H1012a1.5,1.5,0,0,0,0-3Z"/><line class="cls-5" x1="1011.99" y1="516.53" x2="996.33" y2="516.53"/><path class="cls-5" d="M1012,515H996.33a1.5,1.5,0,0,0,0,3H1012a1.5,1.5,0,0,0,0-3Z"/><line class="cls-5" x1="1083.83" y1="444.68" x2="1034.97" y2="444.85"/><path class="cls-5" d="M1083.83,443.18l-16.46.06-26.37.09-6,0a1.5,1.5,0,0,0,0,3l16.46-.06,26.38-.09,6,0a1.5,1.5,0,0,0,0-3Z"/><line class="cls-5" x1="1083.83" y1="468.63" x2="1034.97" y2="468.8"/><path class="cls-5" d="M1083.83,467.13l-16.46.06-26.37.09-6,0a1.5,1.5,0,0,0,0,3l16.46-.06,26.38-.09,6,0a1.5,1.5,0,0,0,0-3Z"/><line class="cls-5" x1="1502.13" y1="756.85" x2="1480.86" y2="778.12"/><path class="cls-5" d="M1501.07,755.79l-18.62,18.62-2.65,2.65a1.5,1.5,0,0,0,2.12,2.12l18.62-18.62,2.65-2.65a1.5,1.5,0,0,0-2.12-2.12Z"/><line class="cls-5" x1="1474.44" y1="756.9" x2="1453.17" y2="778.17"/><path class="cls-5" d="M1473.38,755.84l-18.62,18.62-2.65,2.65a1.5,1.5,0,0,0,2.12,2.12l18.62-18.62,2.65-2.65a1.5,1.5,0,0,0-2.12-2.12Z"/><line class="cls-5" x1="1660.2" y1="543.24" x2="1638.93" y2="564.51"/><path class="cls-5" d="M1659.14,542.18l-18.62,18.62-2.65,2.65a1.5,1.5,0,0,0,2.13,2.12L1658.61,547l2.65-2.65a1.5,1.5,0,0,0-2.12-2.12Z"/><line class="cls-5" x1="1660.2" y1="567.19" x2="1638.93" y2="588.45"/><path class="cls-5" d="M1659.14,566.13l-18.62,18.61-2.65,2.65a1.5,1.5,0,0,0,2.13,2.12l18.61-18.61,2.65-2.65a1.5,1.5,0,0,0-2.12-2.12Z"/><line class="cls-5" x1="1660.2" y1="591.13" x2="1638.93" y2="612.4"/><path class="cls-5" d="M1659.14,590.07l-18.62,18.62-2.65,2.65a1.5,1.5,0,0,0,2.13,2.12l18.61-18.62,2.65-2.65a1.5,1.5,0,0,0-2.12-2.12Z"/><circle class="cls-4" cx="1442.07" cy="188.8" r="7.37"/><circle class="cls-4" cx="1497.34" cy="284.59" r="7.37"/><circle class="cls-4" cx="1663.13" cy="444.85" r="7.37"/><circle class="cls-4" cx="1663.13" cy="468.8" r="7.37"/><circle class="cls-4" cx="1668.65" cy="420.9" r="7.37"/><circle class="cls-4" cx="1637.34" cy="420.9" r="7.37"/><circle class="cls-4" cx="1613.39" cy="349.06" r="7.37"/><circle class="cls-4" cx="1613.39" cy="373.01" r="7.37"/><circle class="cls-4" cx="1613.39" cy="396.95" r="7.37"/><circle class="cls-4" cx="1611.55" cy="492.74" r="7.37"/><circle class="cls-4" cx="1611.55" cy="516.69" r="7.37"/><circle class="cls-4" cx="1611.55" cy="540.64" r="7.37"/><circle class="cls-4" cx="1611.55" cy="636.43" r="7.37"/><circle class="cls-4" cx="1526.81" cy="754.32" r="7.37"/><circle class="cls-4" cx="1480.76" cy="805.9" r="7.37"/><circle class="cls-4" cx="1453.13" cy="807.74" r="7.37"/><circle class="cls-4" cx="1419.97" cy="691.69" r="7.37"/><circle class="cls-4" cx="1254.18" cy="691.69" r="7.37"/><circle class="cls-4" cx="1226.55" cy="691.69" r="7.37"/><circle class="cls-4" cx="1198.92" cy="691.69" r="7.37"/><circle class="cls-4" cx="1143.65" cy="739.58" r="7.37"/><circle class="cls-4" cx="1116.02" cy="739.58" r="7.37"/><circle class="cls-4" cx="1170.71" cy="768.33" r="7.37"/><circle class="cls-4" cx="1170.71" cy="812.54" r="7.37"/><path class="cls-5" d="M1169.21,774.78v33.16a1.5,1.5,0,0,0,3,0V774.78a1.5,1.5,0,0,0-3,0Z"/><circle class="cls-4" cx="1198.92" cy="723" r="7.37"/><circle class="cls-4" cx="1171.29" cy="739.58" r="7.37"/><circle class="cls-4" cx="1198.92" cy="767.21" r="7.37"/><circle class="cls-4" cx="1447.6" cy="691.69" r="7.37"/><circle class="cls-4" cx="1550.76" cy="769.06" r="7.37"/><circle class="cls-4" cx="1550.76" cy="724.85" r="7.37"/><circle class="cls-4" cx="1550.76" cy="697.22" r="7.37"/><circle class="cls-4" cx="1683.39" cy="566.43" r="7.37"/><circle class="cls-4" cx="1683.39" cy="590.37" r="7.37"/><circle class="cls-4" cx="1683.39" cy="542.48" r="7.37"/><circle class="cls-4" cx="1613.39" cy="420.9" r="7.37"/><circle class="cls-4" cx="1545.23" cy="284.59" r="7.37"/><circle class="cls-4" cx="1521.28" cy="284.59" r="7.37"/><circle class="cls-4" cx="1442.07" cy="271.69" r="7.37"/><circle class="cls-4" cx="1359.18" cy="284.59" r="7.37"/><circle class="cls-4" cx="1331.55" cy="284.59" r="7.37"/><circle class="cls-4" cx="1138.13" cy="284.59" r="7.37"/><circle class="cls-4" cx="1110.5" cy="284.59" r="7.37"/><circle class="cls-4" cx="1221.02" cy="284.59" r="7.37"/><circle class="cls-4" cx="1193.39" cy="221.95" r="7.37"/><circle class="cls-4" cx="1165.76" cy="221.95" r="7.37"/><circle class="cls-4" cx="1414.44" cy="188.8" r="7.37"/><circle class="cls-4" cx="1386.81" cy="188.8" r="7.37"/><circle class="cls-4" cx="1276.29" cy="185.11" r="7.37"/><circle class="cls-4" cx="1221.02" cy="185.11" r="7.37"/><circle class="cls-4" cx="1248.65" cy="185.11" r="7.37"/><line class="cls-5" x1="1221.03" y1="212.49" x2="1248.66" y2="243.8"/><path class="cls-5" d="M1220,213.55,1244.2,241l3.4,3.85c1.28,1.45,3.4-.68,2.12-2.12l-24.23-27.46-3.4-3.86c-1.28-1.45-3.39.68-2.12,2.13Z"/><line class="cls-5" x1="1248.66" y1="212.49" x2="1276.29" y2="243.8"/><path class="cls-5" d="M1247.6,213.55,1271.83,241l3.4,3.85c1.28,1.45,3.4-.68,2.12-2.12l-24.23-27.46-3.4-3.86c-1.28-1.45-3.39.68-2.12,2.13Z"/><line class="cls-5" x1="1276.29" y1="212.49" x2="1303.92" y2="243.8"/><path class="cls-5" d="M1275.23,213.55,1299.46,241l3.4,3.85c1.28,1.45,3.4-.68,2.12-2.12l-24.23-27.46-3.4-3.86c-1.28-1.45-3.39.68-2.12,2.13Z"/><line class="cls-5" x1="1442.07" y1="227.48" x2="1469.71" y2="258.8"/><path class="cls-5" d="M1441,228.54,1465.25,256l3.39,3.85c1.28,1.45,3.4-.68,2.13-2.12l-24.24-27.47-3.4-3.85c-1.28-1.45-3.39.68-2.12,2.12Z"/><path class="cls-5" d="M1009.18,566.08h76.45a1.5,1.5,0,0,0,0-3h-76.45a1.5,1.5,0,0,0,0,3Z"/><path class="cls-5" d="M1052.47,637.93h33.16a1.5,1.5,0,0,0,0-3h-33.16a1.5,1.5,0,0,0,0,3Z"/><path class="cls-5" d="M1052.47,614h33.16a1.5,1.5,0,0,0,0-3h-33.16a1.5,1.5,0,0,0,0,3Z"/><path class="cls-5" d="M1009.18,590h76.45a1.5,1.5,0,0,0,0-3h-76.45a1.5,1.5,0,0,0,0,3Z"/><path class="cls-5" d="M1052.47,542.14h33.16a1.5,1.5,0,0,0,0-3h-33.16a1.5,1.5,0,0,0,0,3Z"/><path class="cls-5" d="M1052.47,518.19h33.16a1.5,1.5,0,0,0,0-3h-33.16a1.5,1.5,0,0,0,0,3Z"/><path class="cls-5" d="M1052.47,422.4h33.16a1.5,1.5,0,0,0,0-3h-33.16a1.5,1.5,0,0,0,0,3Z"/><path class="cls-5" d="M1020.23,398.45h65.4a1.5,1.5,0,0,0,0-3h-65.4a1.5,1.5,0,0,0,0,3Z"/><path class="cls-5" d="M1052.47,374.51h33.16a1.5,1.5,0,0,0,0-3h-33.16a1.5,1.5,0,0,0,0,3Z"/><path class="cls-5" d="M1051.55,350.56h33.16a1.5,1.5,0,0,0,0-3h-33.16a1.5,1.5,0,0,0,0,3Z"/><path class="cls-5" d="M1577.47,566.08h59.87a1.5,1.5,0,0,0,0-3h-59.87a1.5,1.5,0,0,0,0,3Z"/><path class="cls-5" d="M1660.36,591.87H1676a1.5,1.5,0,0,0,0-3h-15.66a1.5,1.5,0,0,0,0,3Z"/><path class="cls-5" d="M1660.36,567.93H1676a1.5,1.5,0,0,0,0-3h-15.66a1.5,1.5,0,0,0,0,3Z"/><path class="cls-5" d="M1660.36,544H1676a1.5,1.5,0,0,0,0-3h-15.66a1.5,1.5,0,0,0,0,3Z"/><path class="cls-5" d="M1577.47,637.93h33.16a1.5,1.5,0,0,0,0-3h-33.16a1.5,1.5,0,0,0,0,3Z"/><path class="cls-5" d="M1577.47,614h59.87a1.5,1.5,0,0,0,0-3h-59.87a1.5,1.5,0,0,0,0,3Z"/><path class="cls-5" d="M1577.47,590h59.87a1.5,1.5,0,0,0,0-3h-59.87a1.5,1.5,0,0,0,0,3Z"/><path class="cls-5" d="M1577.47,542.14h33.16a1.5,1.5,0,0,0,0-3h-33.16a1.5,1.5,0,0,0,0,3Z"/><path class="cls-5" d="M1577.47,518.19h33.16a1.5,1.5,0,0,0,0-3h-33.16a1.5,1.5,0,0,0,0,3Z"/><path class="cls-5" d="M1577.47,494.24h33.16a1.5,1.5,0,0,0,0-3h-33.16a1.5,1.5,0,0,0,0,3Z"/><path class="cls-5" d="M1577.47,470.3h83.81a1.5,1.5,0,0,0,0-3h-83.81a1.5,1.5,0,0,0,0,3Z"/><path class="cls-5" d="M1577.47,446.35h83.81a1.5,1.5,0,0,0,0-3h-83.81a1.5,1.5,0,0,0,0,3Z"/><path class="cls-5" d="M1577.47,422.4h33.16a1.5,1.5,0,0,0,0-3h-33.16a1.5,1.5,0,0,0,0,3Z"/><path class="cls-5" d="M1577.47,398.45h33.16a1.5,1.5,0,0,0,0-3h-33.16a1.5,1.5,0,0,0,0,3Z"/><path class="cls-5" d="M1638.26,422.4h28.55a1.5,1.5,0,0,0,0-3h-28.55a1.5,1.5,0,0,0,0,3Z"/><path class="cls-5" d="M1577.47,374.51h33.16a1.5,1.5,0,0,0,0-3h-33.16a1.5,1.5,0,0,0,0,3Z"/><path class="cls-5" d="M1549.26,659.45v33.16a1.5,1.5,0,0,0,3,0V659.45a1.5,1.5,0,0,0-3,0Z"/><path class="cls-5" d="M1525.31,659.45v84.78c0,3.91-.18,7.86,0,11.77v.16a1.5,1.5,0,0,0,3,0V671.38c0-3.91.18-7.86,0-11.76v-.17a1.5,1.5,0,0,0-3,0Z"/><path class="cls-5" d="M1501.36,659.45v84.78c0,3.91-.17,7.86,0,11.77a.86.86,0,0,1,0,.16,1.5,1.5,0,0,0,3,0V671.38c0-3.91.18-7.86,0-11.76v-.17a1.5,1.5,0,0,0-3,0Z"/><path class="cls-5" d="M1473.73,659.45v84.78c0,3.91-.18,7.86,0,11.77v.16a1.5,1.5,0,0,0,3,0V671.38c0-3.91.18-7.86,0-11.76v-.17a1.5,1.5,0,0,0-3,0Z"/><path class="cls-5" d="M1446.1,659.45v33.16a1.5,1.5,0,0,0,3,0V659.45a1.5,1.5,0,0,0-3,0Z"/><path class="cls-5" d="M1418.47,659.45v33.16a1.5,1.5,0,0,0,3,0V659.45a1.5,1.5,0,0,0-3,0Z"/><path class="cls-5" d="M1252.68,659.45v33.16a1.5,1.5,0,0,0,3,0V659.45a1.5,1.5,0,0,0-3,0Z"/><path class="cls-5" d="M1225.05,659.45v33.16a1.5,1.5,0,0,0,3,0V659.45a1.5,1.5,0,0,0-3,0Z"/><path class="cls-5" d="M1197.42,659.45v33.16a1.5,1.5,0,0,0,3,0V659.45a1.5,1.5,0,0,0-3,0Z"/><path class="cls-5" d="M1197.42,729.45v33.16a1.5,1.5,0,0,0,3,0V729.45a1.5,1.5,0,0,0-3,0Z"/><path class="cls-5" d="M1479.26,779.19v21.18a1.5,1.5,0,0,0,3,0V779.19a1.5,1.5,0,0,0-3,0Z"/><path class="cls-5" d="M1451.63,779.19v21.18a1.5,1.5,0,0,0,3,0V779.19a1.5,1.5,0,0,0-3,0Z"/><path class="cls-5" d="M1549.26,729.45v33.16a1.5,1.5,0,0,0,3,0V729.45a1.5,1.5,0,0,0-3,0Z"/><path class="cls-5" d="M1169.79,659.45v78.29a1.5,1.5,0,0,0,3,0V659.45a1.5,1.5,0,0,0-3,0Z"/><path class="cls-5" d="M1142.15,659.45v78.29a1.5,1.5,0,0,0,3,0V659.45a1.5,1.5,0,0,0-3,0Z"/><path class="cls-5" d="M1114.52,659.45v78.29a1.5,1.5,0,0,0,3,0V659.45a1.5,1.5,0,0,0-3,0Z"/><path class="cls-5" d="M1543.73,291v33.16a1.5,1.5,0,0,0,3,0V291a1.5,1.5,0,0,0-3,0Z"/><path class="cls-5" d="M1519.78,291v33.16a1.5,1.5,0,0,0,3,0V291a1.5,1.5,0,0,0-3,0Z"/><path class="cls-5" d="M1495.84,291v33.16a1.5,1.5,0,0,0,3,0V291a1.5,1.5,0,0,0-3,0Z"/><path class="cls-5" d="M1468.21,258.8v65.39a1.5,1.5,0,0,0,3,0V258.8a1.5,1.5,0,0,0-3,0Z"/><path class="cls-5" d="M1440.57,277.22v47a1.5,1.5,0,0,0,3,0v-47a1.5,1.5,0,0,0-3,0Z"/><path class="cls-5" d="M1440.57,194.32v32.24a1.5,1.5,0,0,0,3,0V194.32a1.5,1.5,0,0,0-3,0Z"/><path class="cls-5" d="M1412.94,194.32V308.2c0,5.24-.2,10.53,0,15.76a1.76,1.76,0,0,1,0,.23,1.5,1.5,0,0,0,3,0V210.31c0-5.24.2-10.52,0-15.76v-.23a1.5,1.5,0,0,0-3,0Z"/><path class="cls-5" d="M1385.31,194.32V308.2c0,5.24-.2,10.53,0,15.76v.23a1.5,1.5,0,0,0,3,0V210.31c0-5.24.2-10.52,0-15.76v-.23a1.5,1.5,0,0,0-3,0Z"/><path class="cls-5" d="M1357.68,291v33.16a1.5,1.5,0,0,0,3,0V291a1.5,1.5,0,0,0-3,0Z"/><path class="cls-5" d="M1330.05,291v33.16a1.5,1.5,0,0,0,3,0V291a1.5,1.5,0,0,0-3,0Z"/><path class="cls-5" d="M1302.42,244.06v80.13a1.5,1.5,0,0,0,3,0V244.06a1.5,1.5,0,0,0-3,0Z"/><path class="cls-5" d="M1274.79,244.06v80.13a1.5,1.5,0,0,0,3,0V244.06a1.5,1.5,0,0,0-3,0Z"/><path class="cls-5" d="M1247.15,244.06v80.13a1.5,1.5,0,0,0,3,0V244.06a1.5,1.5,0,0,0-3,0Z"/><path class="cls-5" d="M1219.52,191.56v21.18a1.5,1.5,0,0,0,3,0V191.56a1.5,1.5,0,0,0-3,0Z"/><path class="cls-5" d="M1247.15,191.56v21.18a1.5,1.5,0,0,0,3,0V191.56a1.5,1.5,0,0,0-3,0Z"/><path class="cls-5" d="M1274.79,191.56v21.18a1.5,1.5,0,0,0,3,0V191.56a1.5,1.5,0,0,0-3,0Z"/><path class="cls-5" d="M1219.52,291v33.16a1.5,1.5,0,0,0,3,0V291a1.5,1.5,0,0,0-3,0Z"/><path class="cls-5" d="M1191.89,227.48v84.78c0,3.91-.18,7.86,0,11.77v.16a1.5,1.5,0,0,0,3,0V239.41c0-3.91.18-7.86,0-11.76v-.17a1.5,1.5,0,0,0-3,0Z"/><path class="cls-5" d="M1164.26,227.48v84.78c0,3.91-.18,7.86,0,11.77v.16a1.5,1.5,0,0,0,3,0V239.41c0-3.91.18-7.86,0-11.76v-.17a1.5,1.5,0,0,0-3,0Z"/><path class="cls-5" d="M1136.63,291v33.16a1.5,1.5,0,0,0,3,0V291a1.5,1.5,0,0,0-3,0Z"/><path class="cls-5" d="M1109,291v33.16a1.5,1.5,0,0,0,3,0V291a1.5,1.5,0,0,0-3,0Z"/><path class="cls-5" d="M1576.55,350.56h33.15a1.5,1.5,0,0,0,0-3h-33.15a1.5,1.5,0,0,0,0,3Z"/><line class="cls-4" x1="1086.55" y1="457.74" x2="1086.55" y2="560.9"/><path class="cls-5" d="M1436.55,723h-210V709.44a4.86,4.86,0,0,1,4.86-4.86h200.28a4.87,4.87,0,0,1,4.86,4.86Z"/><path class="cls-5" d="M1436.55,721.5H1235.09c-2.7,0-5.49-.2-8.19,0h-.35l1.5,1.5V710.42a6.06,6.06,0,0,1,.19-2.08,3.4,3.4,0,0,1,3.17-2.26h198.27c.67,0,1.34,0,2,0a3.39,3.39,0,0,1,3.26,2.58,8,8,0,0,1,.1,1.9V723a1.5,1.5,0,0,0,3,0V710.23c0-3-1.22-5.64-4.15-6.74a7.26,7.26,0,0,0-2.53-.41c-3.4,0-6.8,0-10.2,0H1233a9.69,9.69,0,0,0-4.09.55c-2.83,1.23-3.81,3.92-3.81,6.79V723a1.52,1.52,0,0,0,1.5,1.5H1428c2.73,0,5.46.07,8.19,0h.35A1.5,1.5,0,0,0,1436.55,721.5Z"/><path class="cls-5" d="M1381.63,659.45v45.13a1.5,1.5,0,0,0,3,0V659.45a1.5,1.5,0,0,0-3,0Z"/><path class="cls-5" d="M1282.15,659.46v45.13a1.5,1.5,0,0,0,3,0V659.46a1.5,1.5,0,0,0-3,0Z"/><path class="cls-5" d="M1541.8,593.65H1128c-2.46,0-4.92.05-7.38,0-5.91-.12-9.74-4.88-9.75-10.52,0-2.09,0-4.18,0-6.27V377.21c0-6,0-12.08,0-18.11,0-5.65,3.82-10.43,9.75-10.55.65,0,1.29,0,1.94,0h417.32c.62,0,1.25,0,1.88,0,6,.12,9.73,4.94,9.75,10.61q0,9.22,0,18.44V583.07c0,5.67-3.8,10.43-9.75,10.58-2.89.07-2.9,4.57,0,4.5a14.53,14.53,0,0,0,14.25-14.58c0-1.78,0-3.57,0-5.35V377.86q0-9.35,0-18.7c0-5.8-2.77-11.2-8.19-13.74a16.77,16.77,0,0,0-7.28-1.37H1122.37c-1,0-2,0-2.94.06a14.49,14.49,0,0,0-13,14.6c0,5.61,0,11.23,0,16.84V576.78c0,2.12,0,4.25,0,6.38,0,6.19,3.31,11.82,9.26,14.07,3.44,1.31,7.5.92,11.13.92h415C1544.69,598.15,1544.7,593.65,1541.8,593.65Z"/><path class="cls-5" d="M1564.68,656.73H1109.1c-3.45,0-6.92.09-10.37,0-6.17-.16-10.22-5-10.25-11,0-2.16,0-4.32,0-6.49v-301c0-6,3.78-11.19,10.21-11.37.82,0,1.65,0,2.47,0h460.66c.94,0,1.89,0,2.83,0,6.24.17,10.21,5.12,10.23,11.08,0,6.47,0,12.93,0,19.39v288c0,6-3.76,11.18-10.2,11.36-2.31.07-2.32,3.67,0,3.6,8-.22,13.75-6.56,13.8-14.43,0-2.1,0-4.21,0-6.31V357.25c0-6.45,0-12.9,0-19.34,0-7.13-4.64-13.47-12-14.46a28.92,28.92,0,0,0-4-.14H1100.89a35,35,0,0,0-3.55.08c-7.52.75-12.43,7.19-12.46,14.46,0,6.34,0,12.68,0,19V639.43c0,2.14,0,4.28,0,6.42,0,7.54,5.36,14,13.12,14.46,3.22.19,6.49,0,9.71,0h457A1.8,1.8,0,0,0,1564.68,656.73Z"/><path class="cls-5" d="M1710.5,518.79a378.85,378.85,0,0,1-273.19,363.77,377,377,0,0,1-129.47,14.08c-45.94-3-91.24-15.14-133.09-34.25-26.8-12.24-52.65-27.19-76-45.18-2.93-2.25-7.36-5.92-10.77-8.94-6.43-5.7-12.62-11.66-18.63-17.8a441.18,441.18,0,0,1-53.73-66.68c-21.21-32.29-38.13-67.41-48.93-104.54a338.29,338.29,0,0,1-11.82-128.11c3.78-38,13.83-75.47,28.68-110.62A413.83,413.83,0,0,1,1045,278.94a393.86,393.86,0,0,1,89.59-80.45,362.78,362.78,0,0,1,114-48.81,376.11,376.11,0,0,1,247.35,27.7A377.92,377.92,0,0,1,1710.5,518.79c0,5.79,9,5.8,9,0a387.29,387.29,0,0,0-408.11-387.11,370.36,370.36,0,0,0-127.41,30,383.56,383.56,0,0,0-104.41,67.82,420.61,420.61,0,0,0-123.5,204.1c-10.27,39.8-14.3,81.31-10.54,122.29,4,43.19,16.22,85.17,35,124.22a435.85,435.85,0,0,0,57,88.39,408.24,408.24,0,0,0,44.61,46.58c13.47,11.88,28.42,22.14,43.73,31.49a415.63,415.63,0,0,0,109.91,47.15,379.77,379.77,0,0,0,144,9.7,387.47,387.47,0,0,0,334.6-322,398,398,0,0,0,5.07-62.72C1719.51,513,1710.51,513,1710.5,518.79Z"/></g></svg>