<svg xmlns="http://www.w3.org/2000/svg" viewBox="0 0 1920 1080"><defs><style>.cls-1,.cls-2{fill:#a34260;}.cls-1{opacity:0.3;}.cls-3{fill:#fff;}</style></defs><title>Artboard 6</title><g id="Layer_2" data-name="Layer 2"><rect class="cls-1" x="-2" y="0.5" width="1922" height="1080"/><rect class="cls-2" x="1258" y="-0.5" width="662" height="1080"/></g><g id="Layer_15" data-name="Layer 15"><path class="cls-2" d="M1601.1,517.39c0,193-156.45,349.45-349.44,349.45-113.12,0-196-58.55-219-77.13-8.85-7.14-133.55-111.1-130.44-272.32C905.45,349.84,1045.81,168,1251.66,168,1444.65,168,1601.1,324.4,1601.1,517.39Z"/><path class="cls-3" d="M1598,517.89a346.62,346.62,0,0,1-250,332.83,344.75,344.75,0,0,1-118.37,12.88c-42.11-2.8-83.58-13.87-121.93-31.38-24.44-11.16-48-24.79-69.35-41.21a263,263,0,0,1-27-24.56,404.16,404.16,0,0,1-49.18-61c-19.39-29.53-34.86-61.66-44.74-95.61a309.64,309.64,0,0,1-10.81-117.14,350.31,350.31,0,0,1,26.31-101.44,378.79,378.79,0,0,1,56.19-92.87,360.71,360.71,0,0,1,81.93-73.54,331.56,331.56,0,0,1,104.21-44.62A340.49,340.49,0,0,1,1293.88,174a344,344,0,0,1,107.82,31.59A345.87,345.87,0,0,1,1598,517.89c0,3.86,6,3.87,6,0A352.09,352.09,0,0,0,1232.9,166a336.17,336.17,0,0,0-115.64,27.25,349.17,349.17,0,0,0-95,61.68A382.37,382.37,0,0,0,909.91,440.54c-9.34,36.21-13,73.95-9.58,111.23,3.6,39.18,14.73,77.31,31.76,112.74a396.5,396.5,0,0,0,51.83,80.39,372.93,372.93,0,0,0,40.69,42.48c12.22,10.77,25.78,20.07,39.66,28.55a378.08,378.08,0,0,0,100,42.89,345.64,345.64,0,0,0,131.08,8.8A352.29,352.29,0,0,0,1599.41,574.8a360.42,360.42,0,0,0,4.59-56.91C1604,514,1598,514,1598,517.89Z"/><path class="cls-3" d="M963.64,616.26c0,.19,0,.38,0,.56,0,.52,0-.2,0-.25a3.91,3.91,0,0,0-.21.88,3.45,3.45,0,0,0-.18.51c0-.07.33-.66.09-.23s-.35.6-.54.9c-.33.5.39-.37.09-.12a2.89,2.89,0,0,0-.29.32c-.09.08-.17.17-.25.25l-.13.11c-.25.2-.18.16.2-.14-.26.11-.5.35-.74.48l-.31.17c-.5.28.67-.2,0,0-.29.08-.57.18-.87.24s-.29-.13.17,0a1.83,1.83,0,0,0-.46,0c-.32,0-.63,0-.94,0s.78.16.16,0l-.52-.13-.51-.16c-.34-.11,0-.16.22.09a4.35,4.35,0,0,0-.77-.42c-.13-.07-.24-.17-.37-.24-.34-.2.56.5.13.08-.17-.17-.52-.66-.73-.75.28.12.35.49.15.19s-.2-.29-.29-.44a3.07,3.07,0,0,1-.17-.31l-.08-.15c-.14-.29-.11-.21.08.23a5.24,5.24,0,0,0-.27-.85c0-.12,0-.24-.08-.36-.13-.58,0,.74,0,0a7.85,7.85,0,0,1,0-.84c0-.3.21-.69,0,.06,0-.11,0-.24.07-.35a8.65,8.65,0,0,1,.25-.87c.19-.6-.33.62,0,.07.09-.15.16-.31.25-.47L957,614c.24-.38.25,0-.1.11.18-.07.45-.49.6-.63s.52-.36.1-.1,0,0,.12-.08c.23-.15.78-.32.92-.52,0,0-.7.25-.22.1l.51-.17.35-.08c.09,0,.68-.1.14-.05s.07,0,.15,0H960l.46,0c.63,0-.62-.15-.07,0,.36.09.7.18,1,.29.58.18-.46-.28-.14-.06.16.11.37.19.54.29l.3.19.29.2c-.38-.29-.45-.34-.2-.14l.61.62c.44.44-.37-.58,0-.06.09.15.2.29.29.44s.16.32.25.47c.27.49-.21-.64,0-.07.11.35.2.69.29,1s-.13.16,0-.25a3.75,3.75,0,0,0,0,.74,3,3,0,0,0,6,0,9.87,9.87,0,0,0-6.51-9.16,9.69,9.69,0,0,0-10.55,2.81,9.71,9.71,0,1,0,17.06,6.35,3,3,0,0,0-3-3A3.07,3.07,0,0,0,963.64,616.26Z"/><path class="cls-3" d="M1151.81,780.9l0,.57c0,.51,0-.2,0-.25-.13.17-.13.65-.21.87a2.54,2.54,0,0,0-.17.51c0-.07.32-.65.08-.23a10.2,10.2,0,0,1-.54.9c-.32.5.39-.37.09-.12-.1.09-.19.22-.29.32l-.25.25-.13.11c-.24.21-.18.16.2-.13a6.66,6.66,0,0,0-.74.48l-.31.16c-.49.28.68-.2,0,0-.29.08-.57.18-.86.24s-.3-.12.16,0a1.83,1.83,0,0,0-.46,0c-.32,0-.62,0-.94,0s.78.16.17,0l-.53-.13c-.17,0-.34-.11-.51-.16-.34-.11,0-.16.22.1-.14-.17-.57-.29-.77-.43l-.36-.24c-.34-.2.55.5.12.08-.17-.17-.52-.66-.73-.75.28.12.35.5.15.19-.09-.14-.2-.29-.29-.44l-.17-.3-.08-.16c-.13-.29-.1-.21.09.23a5.28,5.28,0,0,0-.28-.85c0-.12,0-.24-.08-.36-.13-.58.06.75,0,0a5.89,5.89,0,0,1,0-.84c0-.29.2-.69,0,.06,0-.11,0-.24.07-.35a7.78,7.78,0,0,1,.25-.86c.19-.61-.33.61,0,.06.09-.15.16-.31.25-.46l.24-.37c.24-.38.25,0-.1.12.18-.08.46-.5.61-.64s.52-.36.09-.1,0,0,.12-.08c.23-.15.78-.32.92-.52,0,.05-.7.25-.22.1.17,0,.34-.12.51-.16a2,2,0,0,1,.35-.09c.09,0,.68-.1.14,0s.07,0,.15,0a3.69,3.69,0,0,1,.47,0l.47,0c.62,0-.63-.15-.07,0,.35.09.69.18,1,.29.57.18-.47-.28-.15-.06a5.61,5.61,0,0,0,.54.29l.3.19.29.2c-.38-.29-.44-.34-.2-.13l.62.61c.44.45-.38-.58,0-.05.1.14.2.29.29.44s.17.31.25.46c.28.49-.2-.64,0-.06.11.34.2.68.29,1s-.13.17,0-.25a3.07,3.07,0,0,0,0,.74,3,3,0,1,0,6,0,9.89,9.89,0,0,0-6.52-9.16,9.67,9.67,0,0,0-10.54,2.81,9.71,9.71,0,1,0,17.06,6.35,3,3,0,0,0-6,0Z"/><path class="cls-3" d="M1165.25,698.58l0,.56c0,.52,0-.19,0-.25a4,4,0,0,0-.2.88,2.08,2.08,0,0,0-.18.51c0-.07.32-.66.08-.23a10.2,10.2,0,0,1-.54.9c-.32.5.39-.37.09-.12-.1.09-.19.22-.29.32s-.17.17-.25.25l-.13.11c-.24.2-.18.16.2-.13a8.35,8.35,0,0,0-.74.47l-.31.17c-.49.28.68-.2,0,0-.29.08-.57.18-.86.24s-.3-.12.16,0a1.83,1.83,0,0,0-.46,0c-.32,0-.62,0-.94,0s.78.16.17,0l-.53-.13L1160,702c-.34-.11,0-.16.22.1-.14-.18-.57-.3-.77-.43s-.24-.17-.36-.24c-.34-.2.55.5.13.08-.18-.17-.53-.66-.74-.75.28.12.35.5.15.19-.09-.14-.2-.29-.29-.44l-.17-.31-.08-.15c-.13-.29-.1-.21.09.23a5.28,5.28,0,0,0-.28-.85c0-.12-.05-.24-.08-.36-.13-.58.06.75,0,0a5.89,5.89,0,0,1,0-.84c0-.3.2-.69,0,.06,0-.11,0-.24.07-.35.07-.3.16-.58.25-.86.19-.61-.33.61,0,.06.09-.15.16-.31.25-.46l.24-.37c.24-.38.25,0-.1.12.18-.08.46-.5.61-.64s.52-.36.09-.1,0,0,.12-.08c.23-.15.78-.32.92-.52,0,0-.7.25-.22.1l.51-.17.35-.08c.09,0,.68-.1.14,0s.07,0,.15,0h.47l.47,0c.62,0-.63-.15-.07,0,.35.09.69.18,1,.29.57.18-.47-.28-.15-.06.16.11.37.19.54.29l.3.19.29.2c-.38-.29-.44-.34-.2-.14s.41.42.62.62c.44.45-.38-.58,0-.06.1.15.2.29.29.45s.17.31.25.46c.28.49-.2-.64,0-.06.11.34.2.68.29,1s-.13.17,0-.25a3.07,3.07,0,0,0,0,.74,3,3,0,0,0,6,0,9.89,9.89,0,0,0-6.52-9.16,9.67,9.67,0,0,0-10.54,2.81,9.71,9.71,0,1,0,17.06,6.35,3,3,0,1,0-6,0Z"/><circle class="cls-3" cx="1416.89" cy="782.58" r="6.72"/><path class="cls-3" d="M1420.61,782.58c0,.19,0,.38,0,.57,0,.51,0-.2,0-.25a3.82,3.82,0,0,0-.21.87,2.59,2.59,0,0,0-.18.51c0-.07.33-.65.09-.23s-.35.61-.55.9c-.32.5.39-.37.1-.12-.11.09-.2.22-.3.32a3,3,0,0,1-.25.25l-.13.11c-.24.21-.17.16.2-.13a5.74,5.74,0,0,0-.73.48l-.32.16c-.49.28.68-.2,0,0-.28.08-.57.18-.86.24s-.29-.12.16,0a1.83,1.83,0,0,0-.46,0c-.31,0-.62,0-.93,0s.78.16.16,0l-.53-.13c-.17,0-.34-.11-.51-.16-.34-.11,0-.16.23.1a4.12,4.12,0,0,0-.78-.42c-.12-.08-.24-.18-.36-.25-.34-.2.55.5.13.08-.18-.17-.53-.66-.73-.75.27.12.34.5.15.19-.1-.14-.2-.29-.29-.44l-.18-.3-.08-.16c-.13-.29-.1-.21.09.23a5.28,5.28,0,0,0-.28-.85c0-.12,0-.24-.07-.36-.14-.58,0,.75,0,0a5.89,5.89,0,0,1,0-.84c0-.29.21-.69,0,.06a2.17,2.17,0,0,0,.07-.35c.07-.3.17-.58.26-.86.19-.61-.34.61,0,.06l.26-.46c.07-.13.16-.25.24-.37.23-.38.25,0-.1.12.17-.08.45-.5.6-.64s.52-.36.1-.1,0,0,.11-.08c.23-.15.79-.32.93-.52,0,0-.71.25-.23.1.17,0,.34-.12.51-.16a2.25,2.25,0,0,1,.35-.09c.09,0,.68-.1.14,0s.07,0,.15,0a3.73,3.73,0,0,1,.47,0l.47,0c.62,0-.63-.15-.07,0,.35.09.69.18,1,.29.57.18-.47-.28-.15-.06a5.77,5.77,0,0,0,.55.29l.29.19.29.2c-.37-.29-.44-.34-.2-.13l.62.61c.44.45-.38-.58,0,0,.1.14.2.29.29.44l.26.46c.27.49-.21-.64,0-.06.11.34.21.68.29,1s-.13.17,0-.25a3.68,3.68,0,0,0,0,.74,3,3,0,1,0,6,0,9.88,9.88,0,0,0-6.51-9.16,9.69,9.69,0,0,0-10.55,2.81,9.71,9.71,0,1,0,17.06,6.35,3,3,0,0,0-6,0Z"/><circle class="cls-3" cx="1020.4" cy="544.02" r="6.72"/><path class="cls-3" d="M1024.12,544c0,.19,0,.38,0,.56,0,.52,0-.2,0-.25a3.78,3.78,0,0,0-.21.88,3.45,3.45,0,0,0-.18.51c0-.07.33-.66.09-.23s-.35.6-.54.9c-.33.5.39-.37.09-.12a2.89,2.89,0,0,0-.29.32l-.25.24-.13.12c-.24.2-.18.16.2-.14a7.2,7.2,0,0,0-.74.48l-.31.17c-.49.28.68-.2,0,0-.29.08-.57.18-.87.24s-.29-.13.17,0a1.83,1.83,0,0,0-.46,0c-.32,0-.62,0-.94,0s.78.16.16,0l-.52-.13-.51-.16c-.34-.11,0-.16.22.09-.14-.17-.57-.29-.77-.42l-.37-.25c-.33-.19.56.51.13.09-.17-.17-.52-.66-.73-.75.28.12.35.49.15.19-.1-.15-.2-.29-.29-.44a3.07,3.07,0,0,1-.17-.31l-.08-.15c-.14-.29-.11-.22.08.23a4.41,4.41,0,0,0-.27-.85c0-.12,0-.24-.08-.36-.13-.58,0,.74,0,0a5.89,5.89,0,0,1,0-.84c0-.3.2-.69,0,.06,0-.11,0-.24.07-.36.06-.29.16-.57.25-.86.19-.6-.33.62,0,.07l.25-.47.24-.37c.24-.37.25,0-.1.12.18-.07.45-.49.6-.63s.52-.36.1-.11l.12-.07c.23-.16.78-.32.92-.52,0,0-.7.25-.22.1l.51-.17.35-.09c.09,0,.68-.09.14,0s.07,0,.15,0h.47l.47,0c.62,0-.63-.14-.08,0,.36.09.7.18,1,.29.58.18-.46-.28-.14-.06.16.11.37.19.54.29l.3.19.29.2c-.38-.29-.44-.34-.2-.14l.61.62c.45.44-.37-.58,0-.06.1.15.2.29.29.44l.25.47c.27.48-.21-.64,0-.07.11.35.2.69.29,1s-.13.16,0-.25a3.75,3.75,0,0,0,0,.74,3,3,0,0,0,6,0,9.89,9.89,0,0,0-6.51-9.17,9.71,9.71,0,0,0-10.55,2.82,9.71,9.71,0,1,0,17.06,6.35,3,3,0,0,0-3-3A3.07,3.07,0,0,0,1024.12,544Z"/><path class="cls-3" d="M1415.57,688.5c0,.19,0,.38,0,.56,0,.52,0-.2,0-.25a4,4,0,0,0-.21.88,2.59,2.59,0,0,0-.18.51c0-.07.33-.66.09-.23s-.35.61-.55.9c-.32.5.39-.37.1-.12-.11.09-.2.22-.3.32a3,3,0,0,1-.25.25l-.13.11c-.24.2-.17.16.2-.14-.25.11-.5.35-.73.48l-.32.17c-.49.28.68-.2,0,0-.28.08-.57.18-.86.24s-.29-.12.16,0a1.83,1.83,0,0,0-.46,0c-.31,0-.62,0-.93,0s.78.16.16,0l-.53-.13-.51-.16c-.34-.11,0-.16.23.1-.15-.18-.57-.3-.78-.43l-.36-.24c-.34-.2.55.5.13.08-.18-.17-.53-.66-.73-.75.27.12.34.5.15.19-.1-.14-.2-.29-.29-.44l-.18-.31-.08-.15c-.13-.29-.1-.21.09.23a5.28,5.28,0,0,0-.28-.85c0-.12,0-.24-.07-.36-.14-.58,0,.75,0,0a5.89,5.89,0,0,1,0-.84c0-.3.2-.69,0,.06a2.17,2.17,0,0,0,.07-.35c.07-.3.17-.58.26-.87.19-.6-.34.62,0,.07l.26-.46c.07-.13.16-.25.24-.37.23-.38.25,0-.1.12.17-.08.45-.5.6-.64s.52-.36.1-.1,0,0,.11-.08c.23-.15.79-.32.93-.52,0,0-.71.25-.23.1l.51-.17.35-.08c.09,0,.68-.1.14,0s.07,0,.15,0h.47l.47,0c.62,0-.63-.15-.07,0,.35.09.69.18,1,.29.57.18-.47-.28-.15-.06s.37.19.55.29a2.9,2.9,0,0,1,.29.19l.29.2c-.37-.29-.44-.34-.2-.14l.62.62c.44.45-.38-.58,0-.06.1.15.2.29.29.45l.26.46c.27.49-.21-.64,0-.07.11.35.21.69.29,1s-.13.17,0-.25a3.68,3.68,0,0,0,0,.74,3,3,0,0,0,6,0,9.88,9.88,0,0,0-6.51-9.16,9.69,9.69,0,0,0-10.55,2.81,9.71,9.71,0,1,0,17.06,6.35,3,3,0,1,0-6,0Z"/><path class="cls-3" d="M1405,686.44l-6.35.25-17.26.68-25.42,1-31.13,1.22-34,1.33-34.41,1.36-32.08,1.26-27,1.06-19.49.76c-3.07.12-6.14.2-9.21.36l-.4,0a3,3,0,0,0,0,6l6.34-.25,17.27-.68,25.42-1,31.12-1.22,34-1.33,34.41-1.36,32.08-1.26,27-1.06,19.5-.76c3.07-.12,6.14-.2,9.21-.36l.4,0a3,3,0,1,0,0-6Z"/><path class="cls-3" d="M1145.5,774.2l-4.79-4.16-13-11.34-19.2-16.7L1085,721.56l-25.65-22.31-26-22.6-24.22-21.07-20.4-17.74L974,625c-2.32-2-4.62-4-7-6a3.88,3.88,0,0,1-.31-.26,3.08,3.08,0,0,0-4.24,0,3,3,0,0,0,0,4.24l4.79,4.17,13,11.34,19.19,16.7,23.5,20.44,25.65,22.31,26,22.6,24.22,21.07,20.4,17.74L1134,772.14c2.32,2,4.62,4.05,7,6l.31.27a3.08,3.08,0,0,0,4.24,0,3,3,0,0,0,0-4.25Z"/><path class="cls-3" d="M1415,774.53c-15-20.5-31.92-39.85-52.25-55.23-13.25-10-28.15-18.21-44.26-22.56a96.25,96.25,0,0,0-45.48-1.39c-16.87,3.67-32.11,12.13-47.88,18.82a166.77,166.77,0,0,1-62.8,13.56c-16.23.26-32.43-.63-48.3-4.25-22.69-5.19-44.07-15.75-60.31-32.66-14.1-14.67-23.39-33.16-28.58-52.72-4.5-16.93-6.06-34.53-5.63-52q.25-10,1.38-19.94c.16-1.32.32-2.63.49-3.94-.09.71.12-.84.16-1.11.08-.58.17-1.17.26-1.75q.39-2.61.87-5.2.26-1.36.54-2.73c.8-3.77-5-5.38-5.78-1.6a186.69,186.69,0,0,0-3.38,25.37,208.07,208.07,0,0,0,2.11,49.67c3.31,19.68,10.1,39,21.45,55.58,13.35,19.47,32.4,33.9,54.3,42.52,18.43,7.26,38.34,10.3,58.07,10.76s39.44-1.19,58.37-7c17.28-5.3,33.05-14.09,49.85-20.56a100,100,0,0,1,24.2-6.35,88.33,88.33,0,0,1,14.27-.48c1.66.08,3.32.2,5,.36s2.74.3,3.87.46c14.56,2.15,28.3,7.65,40.85,15.24,19.3,11.66,35.67,27.75,50.06,45q7,8.37,13.4,17.18a3.1,3.1,0,0,0,4.11,1.08,3,3,0,0,0,1.07-4.1Z"/><path class="cls-3" d="M1329.59,241.71a33.28,33.28,0,0,1,6.85-1.77,27.73,27.73,0,0,1,12.45,1.19c7.15,2.48,11.67,7.82,14.76,14.36.24.52,0,0,0-.05.09.21.17.43.26.64s.23.61.34.91c.21.57.39,1.13.56,1.71s.41,1.45.58,2.2a3,3,0,0,0,5.78-1.6,35,35,0,0,0-7.37-14.87,30.75,30.75,0,0,0-25.89-10.64,35.76,35.76,0,0,0-9.9,2.14,3.08,3.08,0,0,0-2.09,3.69,3,3,0,0,0,3.69,2.09Z"/><path class="cls-3" d="M1101.65,661.51l4.55-20.66,7.22-32.8,1.67-7.56a3,3,0,0,0-5.79-1.6l-4.55,20.67-7.22,32.8-1.67,7.56a3,3,0,1,0,5.79,1.59Z"/><path class="cls-3" d="M1183.55,452.14a74.33,74.33,0,0,0,29.63-31,3.06,3.06,0,0,0-1.08-4.1,3,3,0,0,0-4.1,1.07A68.7,68.7,0,0,1,1180.53,447c-3.36,1.91-.34,7.09,3,5.19Z"/><path class="cls-3" d="M1192.45,468.83a31.62,31.62,0,0,0-5.77-16.45,31.1,31.1,0,0,0-17.83-11.95c-3.75-.9-5.35,4.88-1.59,5.79a29.65,29.65,0,0,1,3,.91,20.48,20.48,0,0,1,3.42,1.56,24.1,24.1,0,0,1,8,7.05,24.84,24.84,0,0,1,3.83,8.09,30,30,0,0,1,.72,3.36c.07.45,0,.47,0,0,0,.23,0,.46.07.7s.06.62.08.93a3.07,3.07,0,0,0,3,3,3,3,0,0,0,3-3Z"/><path class="cls-3" d="M1218.06,420.26a86.25,86.25,0,0,1-9-8.6c-1.35-1.49-2.64-3-3.89-4.61-.08-.09-.29-.37-.1-.12-.16-.2-.31-.4-.46-.61s-.54-.71-.8-1.07c-.56-.77-1.11-1.54-1.64-2.33a3.07,3.07,0,0,0-4.11-1.07A3,3,0,0,0,1197,406a89.84,89.84,0,0,0,16.85,18.56,3.07,3.07,0,0,0,4.24,0c1-1.11,1.29-3.18,0-4.25Z"/><path class="cls-3" d="M1325.39,238.08l-4.43,7.38-12.07,20.06-17.84,29.68-21.77,36.22-23.85,39.66-24.07,40-22.44,37.32L1180,480l-13.59,22.6c-2.15,3.58-4.35,7.14-6.46,10.74l-.27.46c-2,3.32,3.19,6.34,5.18,3l4.43-7.38,12.07-20.06,17.84-29.69,21.77-36.21,23.85-39.66,24.07-40,22.44-37.32,19-31.53,13.59-22.6c2.15-3.58,4.35-7.14,6.46-10.74l.27-.46c2-3.32-3.19-6.34-5.18-3Z"/><path class="cls-3" d="M1365.57,259.68l-4.26,7.12-11.61,19.36-17.17,28.63-21,34.93-22.86,38.13-23.08,38.5-21.59,36-18.24,30.41-13.1,21.86c-2.06,3.43-4.17,6.85-6.18,10.31l-.27.44c-2,3.32,3.2,6.34,5.18,3l4.27-7.12,11.61-19.36,17.17-28.63,20.94-34.93,22.87-38.13,23.08-38.49,21.59-36,18.23-30.41,13.11-21.86c2.06-3.43,4.16-6.84,6.18-10.31.09-.14.18-.29.26-.44,2-3.32-3.19-6.34-5.18-3Z"/><path class="cls-3" d="M1220,505.48l.06,0-.61-.47a12.44,12.44,0,0,1,2.21,2.2l-.47-.6a12.63,12.63,0,0,1,1.56,2.65l-.3-.71a12.72,12.72,0,0,1,.86,3.14l-.1-.8a13.86,13.86,0,0,1,.11,1.7,3,3,0,0,0,3,3,3.06,3.06,0,0,0,3-3,15.53,15.53,0,0,0-1.89-7.39,15.81,15.81,0,0,0-4.4-4.95,3,3,0,0,0-4.41,3.39,3.6,3.6,0,0,0,1.38,1.79Z"/><path class="cls-3" d="M1232.11,488.58c.38.21.76.44,1.13.67s.46.3.68.46l.33.23c.5.36-.56-.45-.07-.05s1,.85,1.49,1.32c.27.27.53.55.79.84l.36.42.21.26-.12-.16a20.79,20.79,0,0,1,1.41,2.18c.21.38.4.77.58,1.17s-.05.15,0,0a4,4,0,0,0,.23.59,19.18,19.18,0,0,1,.91,3.56,3,3,0,0,0,3.69,2.1,3.09,3.09,0,0,0,2.09-3.69,21.16,21.16,0,0,0-10.69-15.08,3,3,0,1,0-3,5.18Z"/><path class="cls-3" d="M1242.77,494.49a80.27,80.27,0,0,0,22.83-37.2c1.05-3.72-4.74-5.31-5.79-1.59a74.44,74.44,0,0,1-21.28,34.55,3,3,0,0,0,4.24,4.24Z"/><path class="cls-3" d="M1253.17,452.93a33.62,33.62,0,0,0,31.13,4,3.09,3.09,0,0,0,2.1-3.69,3,3,0,0,0-3.69-2.1,28,28,0,0,1-26.51-3.38,3,3,0,0,0-4.1,1.08,3.05,3.05,0,0,0,1.07,4.1Z"/><path class="cls-3" d="M1165.91,596.5a19.82,19.82,0,0,0,13.6,7.31c5.69.51,11.19-2.06,15.34-5.78a23.15,23.15,0,0,0,5.44-7.21,3.09,3.09,0,0,0-1.08-4.11,3,3,0,0,0-4.1,1.08,19.07,19.07,0,0,1-4.77,6.24l-.64.53c-.49.42.38-.26-.14.11s-1.18.82-1.8,1.19a12.8,12.8,0,0,1-3.69,1.57,12.58,12.58,0,0,1-9.22-1.13,11.56,11.56,0,0,1-2.9-2.1,18.3,18.3,0,0,1-1.8-1.94c-1-1.27-3.18-1.06-4.24,0a3.07,3.07,0,0,0,0,4.24Z"/><path class="cls-3" d="M1233.69,601.7c-1.5,4.45-4.31,8.68-8.07,11.07a16.87,16.87,0,0,1-2.44,1.28,13.46,13.46,0,0,1-1.49.46c-.3.08-.61.14-.91.2-.62.12.27,0-.42.07a11.39,11.39,0,0,1-6.16-1.18,19.23,19.23,0,0,1-2.32-1.46c.58.41-.28-.23-.42-.35l-.67-.6a15.13,15.13,0,0,1-3.66-5.13s-.21-.48-.35-.89-.33-1-.48-1.48a25.88,25.88,0,0,1-.69-3.26,7.93,7.93,0,0,0-.09-1c0-.47-.07-1-.08-1.43,0-.94,0-1.89,0-2.83s.12-1.84.22-2.76c0-.05.1-.77,0-.24s0-.31.06-.4c0-.32.11-.65.17-1,.14-.76.29-1.51.5-2.25,1-3.73-4.74-5.32-5.79-1.6-2,6.94-1.78,15,1.12,21.66a21.25,21.25,0,0,0,9.27,10.06,17.23,17.23,0,0,0,16.21.06c6.07-3.11,10.11-9.17,12.24-15.48a3,3,0,1,0-5.79-1.59Z"/><path class="cls-3" d="M1256.67,568.08c1.42,7.54,2.43,15.5,2,23.18a44.47,44.47,0,0,1-1.62,10.2,17,17,0,0,1-2.06,4.4c-.24.36-.53.69-.75,1.06s.53-.66.24-.32-.43.54-.65.8a24.8,24.8,0,0,1-2.19,2.28l-.76.67c-.39.33.08,0-.34.27a13.21,13.21,0,0,1-1.68,1.06,5.71,5.71,0,0,1-2.82.73l-.45,0c.08,0,.37.06,0,0-.14,0-1-.32-.53-.13a8,8,0,0,1-.76-.41l-.35-.24c-.38-.28.29.26-.06-.06s-.41-.39-.61-.59-.65-.78-.34-.37a11.48,11.48,0,0,1-1-1.49c-.27-.48-.5-1-.73-1.47.21.46,0,.15,0-.12s-.17-.43-.24-.65a13.88,13.88,0,0,1-.66-6.27,87.73,87.73,0,0,0-.21-20.42,3.09,3.09,0,0,0-3-3c-1.47,0-3.19,1.38-3,3a84,84,0,0,1,.25,20.1,18.94,18.94,0,0,0,4.79,15,10,10,0,0,0,9.46,2.88c3.05-.67,5.77-2.72,8-4.88a24.64,24.64,0,0,0,4.53-6c1.91-3.66,2.6-7.62,3.11-11.67,1.24-9.65.07-19.62-1.73-29.13a3,3,0,1,0-5.78,1.6Z"/><path class="cls-3" d="M1232.39,570.52a44.19,44.19,0,0,0-19.17-23.41,3,3,0,0,0-3,5.18,37.06,37.06,0,0,1,9.89,8.36,36.54,36.54,0,0,1,4.2,6.25c.54,1,1,2,1.48,3,.39.86-.2-.52.14.32.06.17.13.34.19.5.18.46.35.92.52,1.39a3.07,3.07,0,0,0,3.69,2.09,3,3,0,0,0,2.09-3.69Z"/><path class="cls-3" d="M1290.73,292.81a192.42,192.42,0,0,0-21.9-4.64c-6.4-1-13.75-2.46-19.81.63-3.57,1.81-5.9,5.13-7.33,8.77a3,3,0,0,0,2.09,3.69,3.07,3.07,0,0,0,3.69-2.09c.13-.32.14-.35,0-.08.09-.2.17-.38.27-.57.2-.41.41-.8.65-1.19a9.87,9.87,0,0,1,1.73-2.08,8,8,0,0,1,3.49-1.85,15.84,15.84,0,0,1,4.95-.39c2.08.08,4.14.32,6.2.6l.78.11,1.33.19c.81.12,1.62.24,2.43.38q3.06.49,6.09,1.09c4.61.9,9.18,2,13.71,3.21,3.73,1,5.33-4.77,1.6-5.78Z"/><path class="cls-3" d="M1122.6,428.21l-.27-.18c.37.29.47.37.29.22l-.42-.37c-.11-.11-.22-.22-.32-.34l-.21-.23.28.36a4.16,4.16,0,0,1-.57-.9c-.06-.13-.12-.28-.19-.41.43.75.17.41.08.16a8.76,8.76,0,0,1-.25-1c-.12-.55,0,.78,0,.21,0-.15,0-.29,0-.44s0-.39,0-.59c0-.52-.15.77,0,.22.07-.31.15-.61.24-.92.19-.64-.3.58,0,.1l.21-.39c.08-.14.17-.28.26-.41.32-.48-.48.56,0,0,.13-.14.26-.27.4-.4s.61-.39-.11.06c.3-.19.58-.39.9-.56.63-.32-.59.19,0,0l.47-.16.48-.12.33-.06c-.5.06-.62.08-.38.06a8.08,8.08,0,0,1,1.1,0l.34,0-.46-.06a2.39,2.39,0,0,1,.69.16,3,3,0,0,0,1.6-5.79,9.5,9.5,0,0,0-11.45,5.79,9.08,9.08,0,0,0,0,5.85,10.16,10.16,0,0,0,4.08,5.28,3,3,0,0,0,4.11-1.07,3.07,3.07,0,0,0-1.08-4.11Z"/><path class="cls-3" d="M1126.81,429.5a45.9,45.9,0,0,1,14.88,2.3,38.84,38.84,0,0,1,10.84,5,20.81,20.81,0,0,1,8.15,11.26c1.38,4.72,1.62,9.66,1.84,14.61a59.78,59.78,0,0,1,0,6.42c0,.87-.13,1.74-.23,2.61,0,.18-.17,1.32-.07.63-.07.51-.15,1-.23,1.52-.57,3.6-1.27,7.18-1.7,10.81a95.1,95.1,0,0,0-.41,15.65,77.88,77.88,0,0,1-.55,15.71,111.07,111.07,0,0,1-10.81,32.42,3.09,3.09,0,0,0,1.08,4.11,3,3,0,0,0,4.11-1.08,123.65,123.65,0,0,0,10.75-30.21,72.36,72.36,0,0,0,1.57-17.79,125.26,125.26,0,0,1,0-16.44c.08-1,.2-2,.31-3a1.84,1.84,0,0,1,0-.36c0-.19.05-.38.08-.56.08-.55.17-1.09.25-1.63.29-1.74.61-3.47.9-5.2a64.93,64.93,0,0,0,1-12.06c-.22-10.75-1.25-22.5-9.79-30.11-4.17-3.72-9.21-6-14.46-7.8a53,53,0,0,0-17.51-2.86c-3.86,0-3.87,6,0,6Z"/><path class="cls-3" d="M1189.13,382a16.74,16.74,0,0,1,3.27,4,16.06,16.06,0,0,1,2.39,7.43,21.7,21.7,0,0,1-1.21,7.78,34.16,34.16,0,0,1-2,5.25c-3.85,7.87-10.67,14.77-17.39,19.84a86.11,86.11,0,0,1-16.67,9.74c-1.48.66-1.83,2.81-1.08,4.1a3.08,3.08,0,0,0,4.11,1.08,84,84,0,0,0,26.25-18.14,54.77,54.77,0,0,0,9.89-13.45c2.3-4.67,4.17-10.07,4.14-15.32a23.34,23.34,0,0,0-7.45-16.56c-2.79-2.67-7,1.57-4.24,4.24Z"/><path class="cls-3" d="M1228.61,398.16a59.14,59.14,0,0,1-30.76.84c-3.75-.91-5.35,4.88-1.59,5.78a65.24,65.24,0,0,0,33.94-.83c3.7-1.1,2.12-6.89-1.59-5.79Z"/><path class="cls-3" d="M1127.44,575.07a19.12,19.12,0,0,1-2.51,0,11.27,11.27,0,0,1-3.41-.57,8,8,0,0,1-5.56-5.41,16.44,16.44,0,0,1,0-8,29.33,29.33,0,0,1,2.54-7.53,67.27,67.27,0,0,0,3.69-7.53,51.86,51.86,0,0,0,2.47-9.16,99.8,99.8,0,0,0,1.41-19.07c-.13-8.75-.67-18-3.52-26.28a76,76,0,0,1-3.42-17.51c-.58-6-.46-11.94-.64-17.94a55.44,55.44,0,0,0-3.34-17.32c-1.13-3.12-2.57-6.08-4-9.07l-.36-.78c-.24-.52.08.23-.13-.29s-.41-1.09-.57-1.65a14.28,14.28,0,0,1-.39-1.72c.08.51,0-.19,0-.36,0-.36,0-.72,0-1.08-.07-6.87,4-12.63,8.51-17.42,5.7-6,11.84-11.66,17.9-17.32,9.53-8.88,19.27-17.53,29.31-25.83,2.71-2.24,5.45-4.46,8.22-6.63l1.19-.93c.33-.26-.67.52-.08.06l.41-.32,1.48-1.11q8.92-6.68,17.92-13.27c3.6-2.63,7.24-5.22,10.83-7.87a17.26,17.26,0,0,0,3.68-4.38,34.75,34.75,0,0,0,2.66-4.77,37.28,37.28,0,0,1,9.68-12.3,41.33,41.33,0,0,1,20.59-9.66,43,43,0,0,1,6.75-.56c3.86,0,3.87-6,0-6a48.49,48.49,0,0,0-37.86,18.67,34.09,34.09,0,0,0-4.05,6.18c-1.26,2.64-2.58,5.68-4.69,7.75a48.81,48.81,0,0,1-5.67,4.15l-5.35,3.91q-4.87,3.57-9.74,7.18c-5.31,3.93-10.6,7.86-15.75,12-9,7.28-17.79,14.89-26.38,22.68q-9.54,8.65-18.79,17.65c-5.27,5.13-11.06,10.35-14.22,17.13a25.23,25.23,0,0,0-2.54,11.32,20.32,20.32,0,0,0,2,7.94c1.25,2.76,2.64,5.43,3.67,8.28A55.48,55.48,0,0,1,1112,450c.06.35.12.7.17,1.05-.07-.47,0,.23,0,.38q.1.93.18,1.86c.1,1.26.14,2.53.17,3.81,0,2.71,0,5.42.08,8.13a113.37,113.37,0,0,0,2.62,22.71c1,4.1,2.66,8,3.39,12.13a103.37,103.37,0,0,1,1.25,12.05,114.56,114.56,0,0,1-.27,18c-.59,5.94-1.89,12.44-4.7,17.71a45.44,45.44,0,0,0-3.86,8.45,36.45,36.45,0,0,0-1.52,7.89,16.94,16.94,0,0,0,2.21,10.22,14.46,14.46,0,0,0,8.83,6.16,21.26,21.26,0,0,0,6.84.55,3.08,3.08,0,0,0,3-3,3,3,0,0,0-3-3Z"/><path class="cls-3" d="M1113.87,601.56l10-19.58,1.41-2.74a3.06,3.06,0,0,0-1.08-4.1,3,3,0,0,0-4.1,1.07l-10.05,19.58-1.4,2.74a3.08,3.08,0,0,0,1.07,4.11,3,3,0,0,0,4.11-1.08Z"/><path class="cls-3" d="M1164.35,589.79l-16.71,28.58-2.37,4c-2,3.34,3.23,6.36,5.18,3l16.71-28.58,2.37-4c2-3.34-3.23-6.36-5.18-3Z"/><path class="cls-3" d="M1146.34,621.34,1130,633.71l-25.84,19.54-6,4.52a3.1,3.1,0,0,0-1.08,4.11c.74,1.27,2.81,2.06,4.11,1.08l16.35-12.37,25.84-19.54,6-4.53a3.09,3.09,0,0,0,1.08-4.1c-.74-1.27-2.8-2.06-4.11-1.08Z"/><path class="cls-3" d="M1102.56,661.16l3.93-20.39,6.25-32.48,1.43-7.45a3.08,3.08,0,0,0-2.09-3.69,3,3,0,0,0-3.69,2.1l-3.93,20.39-6.25,32.48-1.43,7.45a3.08,3.08,0,0,0,2.09,3.69,3,3,0,0,0,3.69-2.1Z"/><path class="cls-3" d="M1338.11,312.07a274.28,274.28,0,0,0,65.2,11.92,299.24,299.24,0,0,0,74.13-5.11,281.36,281.36,0,0,0,47.28-13.62,3.09,3.09,0,0,0,2.1-3.69,3,3,0,0,0-3.69-2.1,283.47,283.47,0,0,1-76.34,17.76,278.05,278.05,0,0,1-64.66-1.36,282.71,282.71,0,0,1-42.43-9.59c-3.7-1.13-5.28,4.66-1.59,5.79Z"/><path class="cls-3" d="M1585.15,407.8c-30.29,7.86-60.55,15.9-90.52,24.86-7.66,2.29-15.55,4.41-22.91,7.58a42.2,42.2,0,0,0-18.48,15.39c-2.93,4.42-4.09,8.74-6.83,13-6.24,9.68-16.08,17.11-25.47,23.53a277.17,277.17,0,0,1-37.65,21.2A289.68,289.68,0,0,1,1346.62,528c-13,4.1-26,8-39,11.9-12,3.62-23.68,6.68-34.58,13.34-4.55,2.79-8.72,6.1-13,9.23a102.89,102.89,0,0,1-16.66,9.9,165.17,165.17,0,0,1-41.4,12.83,124,124,0,0,1-18.23,1.92c-4.32.13-8.63.11-12.93.63-6.86.81-13.36,2.81-20,4.54-4.24,1.1-8.78,1.87-12.77-.44a16,16,0,0,1-6.13-7.15,11.2,11.2,0,0,1,0-10.45c2.2-4.83,6-8.85,9.87-12.4a117.13,117.13,0,0,1,17.65-13.1c3.67-2.3,7.43-4.46,11.24-6.51q2.94-1.59,5.93-3.1c2.14-1.07,4.44-2.56,6.78-3.08,4.83-1.08,9.75-1.85,14.61-2.77l7.08-1.35c2.19-.41,5.3-.43,7.08-1.86,2.59-2.09,4.88-4.65,7.38-6.85,3.41-3,7-5.79,10.51-8.64a139.43,139.43,0,0,1,18.63-13.11c4.33-2.46,8.87-4.54,13.17-7.06a56.24,56.24,0,0,0,12.4-9.91,80.62,80.62,0,0,0,11.51-14.78c7.81-13.56,7.42-29.69-.07-43.29a52.41,52.41,0,0,0-7.43-10.32c-2.63-2.84-6.87,1.41-4.24,4.24,8,8.64,12.85,20.76,11.33,32.63-.93,7.31-4.37,14-8.84,19.77a76.16,76.16,0,0,1-11.8,12.47,67.59,67.59,0,0,1-11.88,7.24,141.7,141.7,0,0,0-15.23,8.85A236.54,236.54,0,0,0,1216.35,518q-2.11,1.83-4.17,3.73a41.37,41.37,0,0,1-3.61,3.4c-1.5,1,0,0-.28.09a11.09,11.09,0,0,1-1.77.34l-3.54.67-7.52,1.43-7.09,1.34a63.13,63.13,0,0,0-7.52,1.43,48.67,48.67,0,0,0-6.19,3q-3.37,1.68-6.71,3.47a176,176,0,0,0-21.08,13.1,85.65,85.65,0,0,0-14.69,13.12c-3.18,3.74-6.19,8.08-7.23,13s.26,9.67,2.92,13.9a20.5,20.5,0,0,0,7.64,7.41c4,2.1,8.44,2.31,12.87,1.58,7.23-1.19,14.09-4,21.38-5.06a106.65,106.65,0,0,1,12.89-.73,150,150,0,0,0,35.16-5.32c15-4,30.12-9.65,43-18.59,4.35-3,8.45-6.38,12.86-9.3a87,87,0,0,1,17.82-8.89c2-.76,4.17-1.34,6.28-2,10.15-3,20.29-6.07,30.41-9.15,12.35-3.77,24.72-7.37,36.74-12.1a338.43,338.43,0,0,0,39.2-18.36c12-6.6,23.74-14,34.11-23A78.51,78.51,0,0,0,1450,474c2.89-3.91,4.31-7.92,6.41-11.88a36.56,36.56,0,0,1,17.35-16.26,90.79,90.79,0,0,1,9.81-3.51c25-8.05,50.48-14.8,75.86-21.58q13.66-3.64,27.35-7.19c3.74-1,2.15-6.76-1.59-5.79Z"/></g></svg>