<svg xmlns="http://www.w3.org/2000/svg" viewBox="0 0 100 280"><defs><style>.cls-1{fill:#464141;}</style></defs><title>pil</title><g id="Layer_2" data-name="Layer 2"><path class="cls-1" d="M32.89,140.8l3.94-12.2,9.44-29.29L57.69,63.9l9.84-30.52c1.59-4.94,3.41-9.87,4.8-14.88l.06-.2a3,3,0,1,0-5.78-1.6L62.67,28.9,53.23,58.19,41.81,93.6,32,124.12c-1.59,4.94-3.41,9.87-4.8,14.88l-.06.2a3,3,0,1,0,5.78,1.6Z"/><path class="cls-1" d="M72.77,262l-3.93-12.2L59.4,220.53,48,185.12,38.14,154.6c-1.6-4.95-3.1-9.95-4.8-14.88,0-.06,0-.13-.07-.2a3.07,3.07,0,0,0-3.69-2.1,3,3,0,0,0-2.09,3.69l3.93,12.2,9.44,29.29L52.28,218l9.84,30.52c1.6,4.95,3.1,10,4.8,14.88,0,.06,0,.13.07.2a3.07,3.07,0,0,0,3.69,2.1A3,3,0,0,0,72.77,262Z"/></g></svg>
